<svg xmlns="http://www.w3.org/2000/svg" xmlns:xlink="http://www.w3.org/1999/xlink" version="1.1" x="0px" y="0px" viewBox="0 0 100 100" enable-background="new 0 0 100 100" xml:space="preserve" style="max-width:100%" height="100%"><g style="" fill="currentColor"><g style="" fill="currentColor"><path d="M46.396,65.289l6.033,2.288v15.185c4.472,0.104,9.672-3.744,9.672-9.152c0-4.889-3.12-7.904-15.705-13.209    C31.524,53.433,24.66,46.776,24.868,35.128c0.208-12.792,9.88-22.36,21.528-23.921V3.615h6.033v7.384    c8.943,0.312,22.049,4.888,22.049,16.225c0,5.513-4.369,8.425-9.465,8.425c-4.576,0-8.528-3.433-8.528-8.009    s3.017-6.345,3.017-7.8c0-2.08-5.824-3.017-7.072-2.809v15.185l-6.033-2.601V17.031c-3.535,0.832-6.656,4.16-6.136,8.32    c0.728,5.928,7.177,9.568,11.96,11.648l8.529,3.952c10.712,4.888,16.744,11.024,16.744,23.401    c0,14.664-11.648,23.713-25.064,24.44v8.528h-6.033v-8.528c-9.359-0.208-23.608-5.616-23.608-17.368    c0-5.721,4.16-9.984,9.88-9.984c5.201,0,9.049,4.264,9.049,9.359c0,6.137-5.512,7.177-5.512,8.32    c0,1.977,8.527,4.369,10.191,3.641V65.289z" style="" fill="currentColor"></path></g></g></svg>