<svg xmlns="http://www.w3.org/2000/svg" xmlns:xlink="http://www.w3.org/1999/xlink" version="1.1" x="0px" y="0px" viewBox="0 0 52 52" enable-background="new 0 0 52 52" xml:space="preserve" style="max-width:100%" height="100%"><g style="" fill="currentColor"><polygon points="23.4535389,29.5139122 19.4762955,25.5357246 18.108675,26.9033451 23.4535389,32.2491531 33.8948669,21.8078251    32.5272446,20.4402065  " style="" fill="currentColor"></polygon><path d="M50,25.9999409l-6.9151955-4.5746326l3.7042274-7.4180183l-8.2885399-0.5126209L37.997551,5.2254305l-7.4180775,3.6946049   l-4.5746326-6.9151945l-4.5843143,6.9151945l-7.4181356-3.6946049l-0.502882,8.2692385l-8.2788601,0.5126209l3.7041683,7.4180183   L2,25.9999409l6.9248171,4.5746326l-3.7041683,7.4278183l8.2788601,0.5029411l0.502882,8.278801l7.4181356-3.7041702   l4.5843143,6.9151955l4.5746326-6.9151955l7.4180775,3.7041702l0.5029411-8.278801l8.2885399-0.5029411l-3.7042274-7.4278183   L50,25.9999409z M26.0017128,38.5755768c-6.9439449,0-12.57304-5.6291542-12.57304-12.5730381   s5.6290951-12.57304,12.57304-12.57304c6.943882,0,12.57304,5.6291561,12.57304,12.57304   S32.9455948,38.5755768,26.0017128,38.5755768z" style="" fill="currentColor"></path></g></svg>