<svg xmlns:x="http://ns.adobe.com/Extensibility/1.0/" xmlns:i="http://ns.adobe.com/AdobeIllustrator/10.0/" xmlns:graph="http://ns.adobe.com/Graphs/1.0/" xmlns="http://www.w3.org/2000/svg" xmlns:xlink="http://www.w3.org/1999/xlink" version="1.1" x="0px" y="0px" viewBox="0 0 100 100" enable-background="new 0 0 100 100" xml:space="preserve" style="max-width:100%" height="100%"><metadata style="" fill="currentColor"><sfw xmlns="http://ns.adobe.com/SaveForWeb/1.0/" style="" fill="currentColor"><slices style="" fill="currentColor"></slices><slicesourcebounds width="1449" height="1448" y="-1448.9" x="0.5" bottomleftorigin="true" style="" fill="currentColor"></slicesourcebounds></sfw></metadata><path d="M94,98.5H70.6h-1.4H47.1c-1.7,0-3.1-1.4-3.1-3.1c0.1-9,0.4-14.1,6.8-16.4c6.5-2.5,10.4-5,10.4-5l5,15.8l0.7,2.1l2.2-6.3  C64,78.4,69.6,78,70.5,78v0h0c0,0,0,0,0,0h0c0,0,0,0,0,0v0c1,0,6.5,0.3,1.4,7.5l2.2,6.3l0.7-2.1l5-15.8c0,0,3.9,2.5,10.4,5  c6.4,2.3,6.7,7.4,6.8,16.4C97.1,97.1,95.7,98.5,94,98.5z M3,18.2l0,7.9c0,5.3,0,10.7,0,16c0,2.1,0.3,4.4,0.8,6.9  c1.2,5.3,4,10.2,8.6,14.9c5.7,5.7,12.8,10.2,21.9,13.6c0.6,0.2,1.2,0.3,1.9,0.3h0c0.9,0,1.8-0.2,2.4-0.5l2.3-1  c1.9-0.8,3.8-1.7,5.8-2.6c2.5-1.3,4.7-2.7,6.8-4.1c-0.2-0.5-0.4-1.1-0.6-1.6c-1.6-2.1-2.4-4.6-2.8-5.9c-2.1,1.6-4.4,3.1-7.1,4.5  c-1.8,0.9-3.5,1.6-5.3,2.4c-0.5,0.2-1,0.4-1.5,0.7V40.4H11c0-4.8,0-9.5,0-14.2l0-6c8.4-0.9,16.5-4.1,25.3-10v30.2h16.8  c0.8-1.2,1.6-2.3,2.7-3.4c1.3-1.3,2.7-2.5,4.2-3.5c1.5-1,3-1.8,4.6-2.3l0,0c1.5-0.5,3-0.8,4.5-0.9c0.2,0,0.3,0,0.5,0l0-12.2  c0-3.1-1.9-5.1-5-5.6l-1.3-0.2c-1.8-0.2-3.5-0.4-5.1-0.8c-5.9-1.3-11.7-4-18-8.5c-1-0.7-2.1-1.5-3.7-1.5c-1.6,0-2.7,0.8-3.7,1.5  c-8.5,5.9-16.2,8.9-24.1,9.3C6.4,12.4,3,13.3,3,18.2z M57,59.9c0.9,3.1,1.7,4,2.3,4.1c0.6,3.7,3.4,8.4,8.2,10.1c1.9,0.7,4.1,0.7,6,0  c4.6-1.7,7.6-6.4,8.2-10.1c0.6,0,1.4-0.9,2.3-4.1c1.2-4.3-0.1-4.9-1.2-4.8c0.2-0.6,0.4-1.2,0.5-1.8c1.8-11.1-3.6-11.5-3.6-11.5  s-0.9-1.7-3.3-3.1c-1.6-0.9-3.8-1.7-6.7-1.4c-0.9,0-1.8,0.2-2.7,0.5l0,0c-1.1,0.4-2.1,0.9-3,1.5c-1.1,0.7-2.1,1.5-3,2.5  c-1.4,1.5-2.7,3.4-3.3,5.8c-0.5,1.8-0.4,3.6,0,5.6h0c0.1,0.6,0.3,1.2,0.5,1.8C57.1,55,55.8,55.6,57,59.9z" style="" fill="currentColor" xmlns="http://www.w3.org/2000/svg"></path></svg>